<?xml version="1.0" standalone="no"?><!DOCTYPE svg PUBLIC "-//W3C//DTD SVG 1.1//EN" "http://www.w3.org/Graphics/SVG/1.1/DTD/svg11.dtd"><svg t="1687320156135" class="icon" viewBox="0 0 1024 1024" version="1.1" xmlns="http://www.w3.org/2000/svg" p-id="1065" xmlns:xlink="http://www.w3.org/1999/xlink" width="200" height="200"><path d="M816 880m-80 0a80 80 0 1 0 160 0 80 80 0 1 0-160 0Z" p-id="1066" fill="#ffffff"></path><path d="M304 880m-80 0a80 80 0 1 0 160 0 80 80 0 1 0-160 0Z" p-id="1067" fill="#ffffff"></path><path d="M768 608c70.4 0 100-66 128-128l64-160c0-70.4-57.6-128-128-128H234.295l-10.394-98.385C222.669 77.119 208.797 64 192 64H96c-17.6 0-32 14.4-32 32s14.4 32 32 32h67.181l61.215 579.455c1.678 17.52 17.385 30.481 34.905 28.803a32.737 32.737 0 0 0 1.977-0.258H864c17.6 0 32-14.4 32-32s-14.4-32-32-32H285.003l-6.761-64H768z" p-id="1068" fill="#ffffff"></path></svg>